<svg xmlns="http://www.w3.org/2000/svg" xmlns:xlink="http://www.w3.org/1999/xlink" width="849.23" height="67.05" viewBox="0 0 849.23 67.05"><defs><style>.cls-1{fill:url(#linear-gradient);}.cls-2{fill:#2684ff;}.cls-3{fill:#0052cc;}.cls-4{fill:#253858;}</style><linearGradient id="linear-gradient" x1="28.54" y1="35.57" x2="11.4" y2="65.24" gradientUnits="userSpaceOnUse"><stop offset="0" stop-color="#0052cc"/><stop offset="0.92" stop-color="#2684ff"/></linearGradient></defs><title>Atlassian Partner-blue-rgb</title><g id="Layer_2" data-name="Layer 2"><g id="Blue"><path class="cls-1" d="M19.64,30.56a1.88,1.88,0,0,0-3.2.35L.21,63.36a1.94,1.94,0,0,0,1.74,2.81h22.6a1.87,1.87,0,0,0,1.74-1.07C31.15,55,28.2,39.7,19.64,30.56Z"/><path class="cls-2" d="M31.55,1A42.81,42.81,0,0,0,29,43.3L39.94,65.1a1.94,1.94,0,0,0,1.74,1.07h22.6A1.94,1.94,0,0,0,66,63.36L34.85,1A1.83,1.83,0,0,0,31.55,1Z"/><path class="cls-3" d="M296.63,27.06c0,8,3.73,14.42,18.31,17.23,8.7,1.82,10.52,3.23,10.52,6.13s-1.82,4.64-8,4.64a44.89,44.89,0,0,1-21.13-5.72V62.44c4.39,2.15,10.19,4.56,21,4.56,15.25,0,21.29-6.79,21.29-16.9m0,0c0-9.53-5.05-14-19.31-17.07-7.87-1.74-9.78-3.48-9.78-6,0-3.15,2.82-4.47,8-4.47,6.3,0,12.51,1.91,18.39,4.56V14.63a41.57,41.57,0,0,0-18-3.73c-14.09,0-21.38,6.13-21.38,16.16"/><polygon class="cls-3" points="492.5 11.73 492.5 66.17 504.1 66.17 504.1 24.66 508.99 35.68 525.39 66.17 539.98 66.17 539.98 11.73 528.38 11.73 528.38 46.87 523.98 36.67 510.81 11.73 492.5 11.73"/><rect class="cls-3" x="406.04" y="11.73" width="12.68" height="54.44"/><path class="cls-3" d="M391.41,50.1c0-9.53-5.05-14-19.31-17.07-7.87-1.74-9.78-3.48-9.78-6,0-3.15,2.82-4.47,8-4.47,6.3,0,12.51,1.91,18.39,4.56V14.63a41.57,41.57,0,0,0-18-3.73C356.7,10.9,349.4,17,349.4,27.06c0,8,3.73,14.42,18.31,17.23,8.7,1.82,10.52,3.23,10.52,6.13s-1.82,4.64-8,4.64a44.89,44.89,0,0,1-21.13-5.72V62.44c4.39,2.15,10.19,4.56,21,4.56,15.25,0,21.29-6.79,21.29-16.9"/><polygon class="cls-3" points="198.15 11.73 198.15 66.17 224.21 66.17 228.31 54.41 210.91 54.41 210.91 11.73 198.15 11.73"/><polygon class="cls-3" points="146.67 11.73 146.67 23.5 160.75 23.5 160.75 66.17 173.51 66.17 173.51 23.5 188.59 23.5 188.59 11.73 146.67 11.73"/><path class="cls-3" d="M128.16,11.73H111.44l-19,54.44H107L109.65,57A36,36,0,0,0,130,57l2.69,9.17h14.5ZM119.8,47.19a24.76,24.76,0,0,1-7-1l7-23.77,7,23.77A24.76,24.76,0,0,1,119.8,47.19Z"/><path class="cls-3" d="M269.13,11.73H252.4l-19,54.44h14.5L250.61,57a36,36,0,0,0,20.3,0l2.69,9.17h14.5Zm-8.36,35.46a24.76,24.76,0,0,1-7-1l7-23.77,7,23.77A24.76,24.76,0,0,1,260.77,47.19Z"/><path class="cls-3" d="M464.4,11.73H447.68l-19,54.44h14.5L445.89,57a36,36,0,0,0,20.3,0l2.69,9.17h14.5ZM456,47.19a24.76,24.76,0,0,1-7-1l7-23.77,7,23.77A24.76,24.76,0,0,1,456,47.19Z"/><path class="cls-4" d="M594.21,7.68c14.6,0,21.72,7.48,21.72,19.5,0,12.73-7.12,19.85-21.72,19.85H582.54V66.16h-8V7.68Zm13.44,19.67c0-7.12-4-12-14.33-12H582.54v24h10.77C603.64,39.72,607.65,34.83,607.65,27.35Z"/><path class="cls-4" d="M653.13,58.15c-2.85,5.88-8.19,8.9-15,8.9-11.84,0-17.8-10.06-17.8-23.14,0-12.55,6.23-23.15,18.69-23.15,6.5,0,11.48,2.94,14.15,8.72V21.65h7.66V66.16h-7.66Zm-13,1.78c6.85,0,13-4.36,13-14.24V42.13c0-9.88-5.61-14.24-12.11-14.24-8.63,0-13.09,5.7-13.09,16C627.94,54.59,632.21,59.93,640.14,59.93Z"/><path class="cls-4" d="M676.27,66.16H668.8V21.65h7.48v7.83c2.58-5.25,7-9,15.76-8.46v7.48c-9.79-1-15.76,2-15.76,11.39Z"/><path class="cls-4" d="M701.73,21.65V12.22h7.48v9.44H721v7.12H709.21V52.1c0,3.92,2.31,6.59,7,6.59a24.33,24.33,0,0,0,4.81-.62v7.39a18.37,18.37,0,0,1-5.16.71c-9.52,0-14.15-5.61-14.15-13.89V28.77h-7.21V21.65Z"/><path class="cls-4" d="M768.67,66.16H761V39.28c0-8-3.21-11.57-10.5-11.57-7.12,0-12,4.72-12,13.71V66.16h-7.66V21.65h7.66V29a15.6,15.6,0,0,1,14.06-8.19c10.24,0,16.11,7,16.11,19.32Z"/><path class="cls-4" d="M800.63,67.05c-16.65,0-23.95-9.61-23.95-23.23,0-13.44,7.48-23.06,21-23.06,13.71,0,19.23,9.52,19.23,23.06v3.47H784.42c1.07,7.57,6,12.46,16.47,12.46a39.45,39.45,0,0,0,13.53-2.4v7C810.77,66.34,805.17,67.05,800.63,67.05ZM784.34,40.7h24.84c-.44-8.28-4.18-13-11.84-13C789.23,27.71,785.14,33,784.34,40.7Z"/><path class="cls-4" d="M833.47,66.16H826V21.65h7.48v7.83c2.58-5.25,7-9,15.76-8.46v7.48c-9.79-1-15.76,2-15.76,11.39Z"/></g></g></svg>